<svg xmlns="http://www.w3.org/2000/svg" viewBox="0 0 239 71" fill-rule="evenodd" fill="#fff"><path d="M62.2 0l-10 10.2c-2.4-1-5-1.6-7.7-1.6s-5.3.5-7.8 1.6c-1.5.7-3 1.5-4.4 2.5-1.4-1-2.8-1.9-4.4-2.5-2.4-1-5.1-1.6-7.7-1.6-5.6 0-10.7 2.3-14.3 6.1A20.98 20.98 0 0 0 0 29.3c0 2.7.5 5.4 1.5 7.9C2.6 39.7 4 42 5.9 44l13.2 13.5-8.8 9 4.4 4.5 8.8-9 5.3 5.4 3.5 3.5 4.4-4.4 22-22.5c1.9-1.9 3.4-4.2 4.4-6.7s1.5-5.2 1.5-7.9c0-4-1.1-7.7-3-10.9L57 23.2a14.44 14.44 0 0 1 1.4 6.2c0 1.9-.4 3.8-1.1 5.5s-1.7 3.3-3 4.6L32.4 62l-22-22.5c-1.3-1.3-2.3-2.9-3-4.6s-1.1-3.6-1.1-5.5c0-4 1.6-7.5 4.1-10.1s6-4.2 9.9-4.2c1.9 0 3.7.4 5.4 1.1s3.2 1.8 4.6 3.1l2.2 2.3 2.2-2.3c1.3-1.3 2.9-2.4 4.6-3.1s3.5-1.1 5.4-1.1c.9 0 1.8.1 2.7.3L30.2 32.6l-5.9 6 8.9-.1h4.5l-9.7 10 4.4 4.5 17-17.3 3.2-3.3H39.3l18.3-18.7L64.2 7l2.4-2.5L62.2 0zm30.6 19.2H83v42h10.3c6.5 0 9.9-3.5 9.9-10v-3.4c0-4.4-1.4-7.6-4.9-9 2.9-1.4 4.2-4.1 4.2-8.5v-1.5c-.1-6.5-3-9.6-9.7-9.6zm-.5 23c3 0 4.2 1.2 4.2 5.1V51c0 3.1-1.2 4.1-3.4 4.1h-3.7V42.2h2.9zm.3-17c2.3 0 3.3 1.3 3.3 4.3v2.3c0 3.4-1.5 4.4-3.9 4.4h-2.6v-11h3.2zM107 61.1h6.5v-42H107v42zm21-17.4h3v7.7c0 3-1.3 4.1-3.4 4.1s-3.4-1.1-3.4-4.1V28.8c0-3 1.3-4.1 3.4-4.1s3.4 1.1 3.4 4.1v4.5h6.2v-4.1c0-6.7-3.3-10.6-9.7-10.6s-9.7 3.8-9.7 10.6V51c0 6.7 3.3 10.6 9.7 10.6s9.7-3.8 9.7-10.6V37.7H128v6zm33 17.4h6.7v-42h-5.8v25.1l-6.7-25.1H147v42h5.9V30.7l8.1 30.4zm17.9-35.9h11.3v-6h-17.8v42h17.8v-6h-11.3V42.8h9v-6h-9V25.2zm21.3 3.6c0-3 1.3-4.1 3.4-4.1s3.4 1.1 3.4 4.1v22.7c0 3-1.3 4.1-3.4 4.1s-3.4-1.1-3.4-4.1V28.8zm-6.6 22.3c0 6.7 3.5 10.6 9.9 10.6s9.9-3.8 9.9-10.6V29.2c0-6.7-3.5-10.6-9.9-10.6s-9.9 3.8-9.9 10.6v21.9zm38 10h6.7v-42h-5.8v25.1l-6.7-25.1h-8.2v42h5.9V30.7l8.1 30.4z"/></svg>